<svg xmlns="http://www.w3.org/2000/svg" width="34" height="54">
    <path fill-rule="evenodd" fill="#1D7A8C" d="M17.1.2c4.584 0 8.85 1.713 12.7 4.9 3.06 3.8 4.194 7.252 4.194 12.53 0 4.203-3.059 9.95-5.726 14.975-.819 1.525-1.598 2.991-1.788 4.3L18.237 53.23c-.331.685-.357.978-1.831.645a1.378 1.378 0 0 1-.643-.645L7.952 36.905c-.623-1.309-1.403-2.775-2.202-4.3C3.63 27.581.5 21.833.5 17.63c0-5.278 1.413-8.74 4.491-12.53C8.7 1.913 12.316.2 17.1.2zm0 8.496c2.208 0 4.292.939 5.791 2.444 1.5 1.505 2.435 3.598 2.435 6.49 0 1.74-.935 3.831-2.435 5.337-1.499 1.505-3.583 2.444-5.791 2.444-2.389 0-4.473-.939-5.992-2.444-1.499-1.505-2.435-3.597-2.435-5.337 0-2.894.936-4.985 2.435-6.49 1.519-1.505 3.603-2.444 5.992-2.444zm3.844 5.264c-1.013-1.16-2.395-2.506-3.844-2.506-1.649 0-2.42 1.346-3.54 2.506-1.13.152-2.14 1.54-2.14 3.68 0 .968 1.01 2.357 2.14 3.48 1.12 1.17 1.891 1.534 3.54 1.534 1.449 0 2.831-.364 3.844-1.534 1.012-1.123 1.636-2.512 1.636-3.48.001-2.14-.622-3.528-1.636-3.68zM27.8 6.957c-3.311-2.6-6.856-4.203-10.7-4.203-3.35 0-7.59 1.603-10.161 4.203-2.59 2.58-4.188 6.159-4.188 10.683 0 3.529 2.883 8.925 5.414 13.675.819 1.545 1.598 3.03 2.26 4.398L17.8 49.456l5.772-13.743c.663-1.368 1.568-2.853 2.26-4.398 2.531-4.75 5.414-10.146 5.414-13.675.002-4.524-1.595-8.103-3.446-10.683z"/>
</svg>
